<svg width="366" height="71" viewBox="0 0 366 71" fill="none" xmlns="http://www.w3.org/2000/svg">
<path fill-rule="evenodd" clip-rule="evenodd" d="M43.2664 36.06V36.8004L43.0254 36.06H38.1768L38.1397 36.0005C36.6703 33.6845 34.6979 31.8379 32.2366 30.4739C29.8934 29.1826 27.3092 28.202 24.5743 28.0808C24.2916 28.0698 24.0111 28.0411 23.7284 28.0235C23.4572 27.9993 23.1791 28.0235 22.9079 28.0235C17.7372 28.0235 13.5329 30.1015 10.0981 33.7308C6.54049 37.4901 4.66085 41.8686 4.66085 46.9324C4.66085 52.1681 6.45009 56.7537 10.2163 60.5857C13.7392 64.1732 18.013 66.2357 23.2046 66.2357C26.25 66.2357 29.0822 65.4182 31.7035 63.955C34.4036 62.4434 36.6216 60.4425 38.3205 57.9437L38.3599 57.8864L43.5144 57.8136L43.4263 57.9921C41.5235 61.8242 38.7052 64.9224 34.9946 67.267C31.4254 69.5212 27.4992 70.8103 23.2046 70.8103C16.6618 70.8103 11.2037 68.4657 6.75371 63.9198C2.09286 59.1556 0 53.4263 0 46.9412C0 40.5442 2.16239 34.9229 6.75371 30.2337C11.1109 25.7825 16.4347 23.3806 22.85 23.3806C25.1028 23.3806 27.3301 23.7023 29.4878 24.3149C31.7012 24.9407 33.7361 25.9367 35.5949 27.239C35.975 27.5057 36.3644 27.7547 36.7306 28.0345C37.1199 28.3364 37.4861 28.6626 37.8616 28.9777C38.9231 29.8569 39.915 30.7978 40.8027 31.8357C41.6603 32.8405 42.4923 33.9776 42.9558 35.2006C43.0045 35.3306 43.0601 35.4474 43.1204 35.5708C43.1575 35.6479 43.1899 35.7272 43.2177 35.8088H43.271V35.9608L43.3035 36.0555H43.2664V36.06ZM54.9035 44.1603H77.4313V24.0615H82.0945V70.0082H77.4313V48.5388H54.9035V70.0082H50.2403V24.0615H54.9035V44.1603ZM95.5347 28.4422V44.6539H114.519V49.0324H95.5347V65.6275H115.172V70.006H90.8761V24.0615H115.172V28.4422H95.5347ZM164.124 36.06V36.8004L163.883 36.06H159.034L158.997 36.0005C157.521 33.6845 155.556 31.8379 153.092 30.4739C150.751 29.1826 148.162 28.202 145.43 28.0808C145.147 28.0698 144.866 28.0411 144.584 28.0235C144.31 27.9993 144.034 28.0235 143.763 28.0235C138.59 28.0235 134.388 30.1015 130.951 33.7308C127.398 37.4901 125.514 41.8686 125.514 46.9324C125.514 52.1681 127.301 56.7537 131.067 60.5857C134.592 64.1732 138.864 66.2357 144.055 66.2357C147.103 66.2357 149.933 65.4182 152.557 63.955C155.254 62.4434 157.475 60.4425 159.173 57.9437L159.213 57.8864L164.367 57.8136L164.279 57.9921C162.376 61.8242 159.558 64.9224 155.845 67.267C152.281 69.5212 148.355 70.8103 144.055 70.8103C137.515 70.8103 132.054 68.4657 127.604 63.9198C122.941 59.1556 120.848 53.4263 120.848 46.9412C120.848 40.5442 123.011 34.9229 127.604 30.2337C131.964 25.7825 137.283 23.3806 143.696 23.3806C145.953 23.3806 148.178 23.7023 150.336 24.3149C152.55 24.9407 154.587 25.9367 156.446 27.239C156.823 27.5057 157.213 27.7547 157.579 28.0345C157.968 28.3364 158.334 28.6626 158.712 28.9777C159.769 29.8569 160.766 30.7978 161.653 31.8357C162.509 32.8405 163.343 33.9776 163.804 35.2006C163.853 35.3306 163.911 35.4474 163.969 35.5708C164.008 35.6479 164.036 35.7272 164.066 35.8088H164.119V35.9608L164.152 36.0555H164.124V36.06ZM175.759 50.0901L195.844 24.0615H201.758L184.306 46.4564L201.754 70.0082H195.962L181.347 50.3061L175.759 57.4456V70.0082H171.098V24.0615H175.759V50.0901ZM210.911 28.4422V44.6539H229.895V49.0324H210.911V65.6275H230.551V70.006H206.25V24.0615H230.551V28.4422H210.911ZM255.332 53.0032L267.708 70.0082H261.932L246.819 49.0434H248.397L248.418 49.05C248.513 49.0875 248.617 49.1051 248.722 49.1051C248.842 49.1051 248.965 49.1051 249.088 49.1051C249.637 49.1051 250.191 49.1051 250.743 49.1051C251.313 49.1051 251.888 49.0743 252.46 49.0434C253.413 48.9927 254.365 48.8914 255.308 48.7261C256.212 48.5674 257.074 48.2788 257.89 47.8799C259.661 47.0227 261.07 45.8042 262.06 44.1603C263.07 42.479 263.529 40.6478 263.529 38.7153C263.529 38.6337 263.529 38.5522 263.529 38.4663C263.529 38.4266 263.529 38.3869 263.529 38.3473C263.492 36.8202 263.066 35.3636 262.356 33.9974C261.666 32.6797 260.713 31.5492 259.487 30.648C258.317 29.793 257.007 29.1804 255.549 28.9292C254.122 28.6846 252.678 28.5303 251.229 28.5105C250.972 28.5039 250.712 28.5105 250.458 28.5105C250.179 28.5105 249.904 28.5149 249.623 28.5105L242.788 28.44V70.006H238.127V24.0615H248.724C249.442 24.0615 250.156 24.1232 250.877 24.1232C251.595 24.1232 252.312 24.1849 253.028 24.2466C254.469 24.3722 255.909 24.5176 257.325 24.8063C258.746 25.0972 260.067 25.6392 261.29 26.3819C263.522 27.7238 265.286 29.4823 266.463 31.7365C267.676 34.0591 268.19 36.569 268.19 39.1494C268.19 42.8382 266.959 46.0818 264.352 48.8187C261.918 51.3638 258.949 52.849 255.332 53.0032Z" fill="white"/>
<path d="M332.949 0L286.069 70.142H302.82L318.408 46.4927H332.991V70.142H345.617V0H332.949ZM332.949 37.5103H320.481L332.949 18.5929V37.5103Z" fill="url(#paint0_linear_7_663)"/>
<path d="M320.481 37.5103H307.866L301.878 46.4613H318.367H332.95V46.723H345.575V37.5103H332.95H320.481Z" fill="url(#paint1_linear_7_663)"/>
<path d="M332.949 37.5103V46.4613V70.1107H345.575V6.10352e-05H332.949V18.5929V37.5103Z" fill="url(#paint2_linear_7_663)"/>
<path d="M353.416 6.10352e-05L365.947 18.8756L353.489 18.9175L353.416 6.10352e-05Z" fill="url(#paint3_linear_7_663)"/>
<g style="mix-blend-mode:multiply" opacity="0.1">
<path d="M353.416 6.10352e-05L354.903 17.2843L365.947 18.8756L353.489 18.9175L353.416 6.10352e-05Z" fill="black"/>
</g>
<path d="M366.001 24.4556H353.375V70.1107H366.001V24.4556Z" fill="url(#paint4_linear_7_663)"/>
<defs>
<linearGradient id="paint0_linear_7_663" x1="293.597" y1="80.7157" x2="351.406" y2="22.9061" gradientUnits="userSpaceOnUse">
<stop stop-color="#9CF2FF"/>
<stop offset="1" stop-color="#14639C"/>
</linearGradient>
<linearGradient id="paint1_linear_7_663" x1="305.72" y1="42.1167" x2="334.363" y2="42.1167" gradientUnits="userSpaceOnUse">
<stop stop-color="#9CF2FF"/>
<stop offset="1" stop-color="#14639C"/>
</linearGradient>
<linearGradient id="paint2_linear_7_663" x1="339.262" y1="1.31915" x2="339.262" y2="69.9327" gradientUnits="userSpaceOnUse">
<stop stop-color="#9CF2FF"/>
<stop offset="1" stop-color="#14639C"/>
</linearGradient>
<linearGradient id="paint3_linear_7_663" x1="359.687" y1="-5.06692" x2="359.687" y2="23.1888" gradientUnits="userSpaceOnUse">
<stop stop-color="white"/>
<stop offset="1" stop-color="#8FA4B5"/>
</linearGradient>
<linearGradient id="paint4_linear_7_663" x1="359.688" y1="24.0577" x2="359.688" y2="79.1454" gradientUnits="userSpaceOnUse">
<stop stop-color="#ADC8FF"/>
<stop offset="1" stop-color="#323D52"/>
</linearGradient>
</defs>
</svg>
